<svg xmlns="http://www.w3.org/2000/svg" viewBox="0 0 24 24" class="jow_prod__sc-d1d7fdb0-0 ljwnNe jow_prod__sc-1f31b3ae-0 cwjNIk jow_prod__sc-4a23e593-3 bHOJpR" width="32" height="32" focusable="false" role="img" aria-hidden="true" aria-label="preparation-24" aria-labelledby="preparation-24"><path fill-rule="evenodd" d="M19.8 4.148a.68.68 0 0 0-.942 0l-4.482 4.346.942.913 4.483-4.346a.63.63 0 0 0 0-.913m-3.418 6.29 4.482-4.345a2.06 2.06 0 0 0 0-2.977 2.22 2.22 0 0 0-3.07 0L3.054 17.41a1.79 1.79 0 0 0 0 2.587c2.066 2.004 5.416 2.004 7.482 0l6.257-6.066a2.14 2.14 0 0 0 0-3.095zm-3.07-.913-9.196 8.917a.363.363 0 0 0 0 .524c1.479 1.434 3.876 1.434 5.355 0l6.257-6.067a.714.714 0 0 0 0-1.031z" clip-rule="evenodd"></path></svg>