<svg xmlns="http://www.w3.org/2000/svg" viewBox="0 0 24 24" class="jow_prod__sc-d1d7fdb0-0 ljwnNe jow_prod__sc-1f31b3ae-0 cwjNIk jow_prod__sc-4a23e593-3 bHOJpR" width="32" height="32" focusable="false" role="img" aria-hidden="true" aria-label="calorie-24" aria-labelledby="calorie-24"><path fill-rule="evenodd" d="M15.19 3.542a.2.2 0 0 1 .027-.037l.01.001c.04.007.137.054.191.194.502 1.298 1.183 2.524 1.823 3.676.272.49.537.966.777 1.429.83 1.597 1.44 3.142 1.44 4.919 0 2.667-1.393 4.766-3.57 5.883.32-.688.483-1.49.483-2.372 0-1.088-.384-1.822-.785-2.5l-.133-.224c-.35-.586-.697-1.168-.951-2.046a1.28 1.28 0 0 0-.929-.892 1.2 1.2 0 0 0-1.284.502 9.7 9.7 0 0 0-1.008 1.972l-.002-.013a1.27 1.27 0 0 0-.74-1.006 1.19 1.19 0 0 0-1.348.261c-.694.715-1.563 2.005-1.563 3.946 0 .887.135 1.669.408 2.333-2.133-1.127-3.493-3.208-3.493-5.844 0-2.835 1.05-4.987 1.884-6.25a5.84 5.84 0 0 0 1.428 2.267c.22.216.552.28.84.164a.75.75 0 0 0 .476-.696c0-2.114.776-3.427 1.398-4.147a.25.25 0 0 1 .095.128c.203.545.47 1.199.777 1.765.154.283.326.562.515.8.18.227.421.473.728.623.224.109.488.105.709-.01a.75.75 0 0 0 .401-.57c.245-1.909.857-3.326 1.396-4.256m.032-.041-.002.001zm1.64-.332a1.81 1.81 0 0 0-1.347-1.141 1.57 1.57 0 0 0-1.669.774 12.3 12.3 0 0 0-1.242 3.05 15 15 0 0 1-.49-1.175 1.73 1.73 0 0 0-1.133-1.07 1.52 1.52 0 0 0-1.585.477c-.557.643-1.164 1.6-1.502 2.923a5 5 0 0 1-.1-.314 1.39 1.39 0 0 0-.96-.95c-.447-.126-1.027-.035-1.386.458A12.83 12.83 0 0 0 3 13.724C3 18.717 7.013 22 12 22s9-3.283 9-8.276c0-2.13-.738-3.928-1.605-5.599a62 62 0 0 0-.855-1.573c-.617-1.109-1.214-2.184-1.678-3.383m-4.615 13.186a9.2 9.2 0 0 1 .975-2.864c.282.75.619 1.312.9 1.78l.127.214c.361.612.58 1.064.58 1.75 0 1.114-.325 1.923-.803 2.445-.472.514-1.154.815-2.026.815-.92 0-1.592-.256-2.04-.718-.454-.467-.789-1.258-.789-2.542 0-1.04.325-1.814.692-2.358.052.231.122.47.213.702.178.453.478.97 1 1.29a.79.79 0 0 0 .726.049.76.76 0 0 0 .445-.563" clip-rule="evenodd"></path></svg>