<svg xmlns="http://www.w3.org/2000/svg" viewBox="0 0 24 24" class="jow_prod__sc-d1d7fdb0-0 ljwnNe jow_prod__sc-1f31b3ae-0 cwjNIk jow_prod__sc-4a23e593-3 bHOJpR" width="32" height="32" focusable="false" role="img" aria-hidden="true" aria-label="plate-stroke-24" aria-labelledby="plate-stroke-24"><path fill-rule="evenodd" d="M4.308 7C3.033 7 2 8.007 2 9.25s1.033 2.25 2.308 2.25h.256v4.75c0 1.243 1.033 2.25 2.308 2.25h10.256c1.275 0 2.308-1.007 2.308-2.25V11.5h.256C20.967 11.5 22 10.493 22 9.25S20.967 7 19.692 7h-.597c-.715-1.757-2.474-3-4.53-3H12.75V3a.75.75 0 0 0-1.5 0v1H9.436C7.379 4 5.62 5.243 4.906 7zm.263 1.5h-.263a.76.76 0 0 0-.77.75c0 .414.345.75.77.75h.256V8.75q0-.126.007-.25m13.317 0q.01.124.01.25v7.5a.76.76 0 0 1-.77.75H6.872a.76.76 0 0 1-.77-.75v-7.5q0-.126.01-.25zM6.627 7a3.35 3.35 0 0 1 2.809-1.5h5.128c1.18 0 2.217.598 2.81 1.5zm12.802 1.5q.007.124.007.25V10h.256a.76.76 0 0 0 .77-.75.76.76 0 0 0-.77-.75zM8.41 19.5a.76.76 0 0 1 .77.75v1a.76.76 0 0 1-.77.75.76.76 0 0 1-.769-.75v-1a.76.76 0 0 1 .77-.75m7.949.75a.76.76 0 0 0-.77-.75.76.76 0 0 0-.769.75v1c0 .414.345.75.77.75a.76.76 0 0 0 .769-.75zM12 19.5a.76.76 0 0 1 .77.75v1A.76.76 0 0 1 12 22a.76.76 0 0 1-.77-.75v-1a.76.76 0 0 1 .77-.75" clip-rule="evenodd"></path></svg>